<svg width="190" height="23" viewBox="0 0 190 23" fill="none" xmlns="http://www.w3.org/2000/svg">
<path d="M8.71439 10.0994C11.1151 10.0994 12.5074 8.79566 12.5074 6.60182C12.5074 4.40799 11.1151 3.22243 8.71439 3.22243H4.09035V10.0994H8.71439ZM17.5174 21.9845H12.9525L8.18072 13.0928H4.09035V21.9845H0V0.0517082H8.50573C13.6635 0.0517082 16.7455 2.39328 16.7455 6.30636C16.7455 10.5444 13.7226 13.0337 8.59437 13.0337V13.0928C10.995 13.0928 13.1298 14.2193 14.2248 16.1749L17.5156 21.9845H17.5174Z" fill="#006166"/>
<path d="M19.3516 7.10597H23.2646V21.9845H19.3516V7.10597ZM19.3516 0.555851H23.2646V4.26026H19.3516V0.555851Z" fill="#006166"/>
<path d="M40.3087 7.10596L36.4252 21.9845H29.0459L25.1328 7.10596H29.3118L32.7207 21.7186H32.7798L36.1297 7.10596H40.3087Z" fill="#006166"/>
<path d="M44.7151 13.6561H51.7102C51.4739 11.1668 50.1997 9.743 48.2422 9.743C46.2847 9.743 44.981 11.1649 44.7151 13.6561ZM55.5328 14.9894H44.6855C44.8333 17.7169 46.137 19.3161 48.2422 19.3161C50.0796 19.3161 51.3538 18.3078 51.7398 16.6772H55.5328C54.9991 20.2043 52.2716 22.28 48.2422 22.28C43.6182 22.28 40.8906 19.4047 40.8906 14.5443C40.8906 9.68391 43.6182 6.80865 48.2422 6.80865C52.8663 6.80865 55.5328 9.65436 55.5328 14.5443V14.9894Z" fill="#006166"/>
<path d="M68.7274 7.28324L67.6009 10.7808C67.0082 10.454 66.2677 10.2471 65.5271 10.2471C63.2447 10.2471 61.8818 12.1141 61.8818 15.2553V21.9827H57.9688V7.10411H61.8818V13.2387H61.9409C61.9409 9.17792 63.6306 6.8068 66.4468 6.8068C67.3073 6.8068 68.1365 6.98408 68.7293 7.28139" fill="#006166"/>
<path d="M85.1748 13.4602L81.4408 0.359994H81.3817L77.6182 13.4602H85.1766H85.1748ZM86.0649 16.6309H76.6986L75.188 21.9364H71.0977L77.9155 0.00357819H85.1471L91.9336 21.9364H87.5773L86.0667 16.6309H86.0649Z" fill="#006166"/>
<path d="M103.884 14.4963C103.884 11.7392 102.491 9.84272 100.12 9.84272C97.7492 9.84272 96.355 11.5915 96.355 14.4963C96.355 17.4011 97.7474 19.1204 100.12 19.1204C102.493 19.1204 103.884 17.2238 103.884 14.4963ZM107.588 0.00184847V21.9347H103.675V16.8065H103.616C103.616 20.2154 101.631 22.2301 98.3106 22.2301C94.5766 22.2301 92.3828 19.3549 92.3828 14.4945C92.3828 9.63404 94.5766 6.75878 98.3106 6.75878C101.631 6.75878 103.616 8.7735 103.616 12.1529H103.675V0H107.588V0.00184847Z" fill="#006166"/>
<path d="M124.551 7.05795L120.667 21.9365H113.288L109.375 7.05795H113.554L116.963 21.6688H117.022L120.372 7.05795H124.551Z" fill="#006166"/>
<path d="M126.67 7.05795H130.583V21.9365H126.67V7.05795ZM126.67 0.00368881H130.583V4.21224H126.67V0.00368881Z" fill="#006166"/>
<path d="M132.699 17.1057H136.345C136.345 18.7658 137.501 19.7446 139.456 19.7446C141.412 19.7446 142.45 19.0336 142.45 17.7889C142.45 16.2174 140.701 15.922 138.745 15.5951C136.167 15.1796 133.083 14.6755 133.083 11.2684C133.083 8.4522 135.454 6.76251 139.456 6.76251C143.458 6.76251 145.799 8.57039 145.799 11.6525H142.154C142.154 10.081 141.175 9.19271 139.456 9.19271C137.826 9.19271 136.849 9.84459 136.849 10.9415C136.849 12.2748 138.479 12.5426 140.376 12.8676C143.013 13.3126 146.215 13.8463 146.215 17.3439C146.215 20.3964 143.696 22.2339 139.458 22.2339C135.22 22.2339 132.701 20.3373 132.701 17.1057" fill="#006166"/>
<path d="M159.249 14.4963C159.249 11.5915 157.857 9.84273 155.486 9.84273C153.115 9.84273 151.722 11.5915 151.722 14.4963C151.722 17.4011 153.115 19.1204 155.486 19.1204C157.857 19.1204 159.249 17.4011 159.249 14.4963ZM147.719 14.4963C147.719 9.6359 150.624 6.76065 155.484 6.76065C160.344 6.76065 163.22 9.6359 163.22 14.4963C163.22 19.3567 160.344 22.232 155.484 22.232C150.624 22.232 147.719 19.3567 147.719 14.4963Z" fill="#006166"/>
<path d="M175.97 7.23525L174.843 10.7328C174.25 10.406 173.51 10.1991 172.769 10.1991C170.487 10.1991 169.124 12.0661 169.124 15.2073V21.9347H165.211V7.05612H169.124V13.1907H169.183C169.183 9.12993 170.873 6.75881 173.689 6.75881C174.55 6.75881 175.379 6.93609 175.971 7.2334" fill="#006166"/>
<path d="M176.346 17.1057H179.991C179.991 18.7658 181.147 19.7446 183.103 19.7446C185.058 19.7446 186.096 19.0336 186.096 17.7889C186.096 16.2174 184.347 15.922 182.392 15.5951C179.814 15.1796 176.732 14.6755 176.732 11.2684C176.732 8.4522 179.103 6.76251 183.104 6.76251C187.106 6.76251 189.448 8.57039 189.448 11.6525H185.802C185.802 10.081 184.824 9.19271 183.104 9.19271C181.474 9.19271 180.497 9.84459 180.497 10.9415C180.497 12.2748 182.128 12.5426 184.024 12.8676C186.663 13.3126 189.863 13.8463 189.863 17.3439C189.863 20.3964 187.344 22.2339 183.106 22.2339C178.868 22.2339 176.349 20.3373 176.349 17.1057" fill="#006166"/>
</svg>
