<svg width="1154" height="334" viewBox="0 0 1154 334" fill="none" xmlns="http://www.w3.org/2000/svg">
<mask id="path-1-inside-1_102_2" fill="white">
<path fill-rule="evenodd" clip-rule="evenodd" d="M614 175.6C614 78.6095 692.624 0 789.6 0H1153.16V175.6H789.6H614Z"/>
</mask>
<path d="M614 175.6H612V177.6H614V175.6ZM1153.16 0H1155.16V-2H1153.16V0ZM1153.16 175.6V177.6H1155.16V175.6H1153.16ZM789.6 -2C691.52 -2 612 77.5049 612 175.6H616C616 79.7142 693.729 2 789.6 2V-2ZM789.6 2H1153.16V-2H789.6V2ZM1151.16 0V175.6H1155.16V0H1151.16ZM1153.16 173.6H789.6V177.6H1153.16V173.6ZM614 177.6H789.6V173.6H614V177.6Z" fill="#00EEDB" mask="url(#path-1-inside-1_102_2)"/>
<mask id="path-3-inside-2_102_2" fill="white">
<path fill-rule="evenodd" clip-rule="evenodd" d="M456.663 174H0V333.646H456.663C544.65 333.647 616 262.316 616 174.31H456.663L456.663 174Z"/>
</mask>
<path d="M0 174V172H-2V174H0ZM456.663 174L458.663 174L458.663 172H456.663V174ZM0 333.646H-2V335.646H0V333.646ZM456.663 333.646V331.646V333.646ZM616 174.31H618V172.31H616V174.31ZM456.663 174.31L454.663 174.309L454.663 176.31H456.663V174.31ZM0 176H456.663V172H0V176ZM2 333.646V174H-2V333.646H2ZM456.663 331.646H0V335.646H456.663V331.646ZM456.663 335.646C545.754 335.647 618 263.421 618 174.31H614C614 261.212 543.546 331.647 456.663 331.646V335.646ZM616 172.31H456.663V176.31H616V172.31ZM454.663 174L454.663 174.309L458.663 174.31L458.663 174L454.663 174Z" fill="#00EEDB" mask="url(#path-3-inside-2_102_2)"/>
</svg>
