<svg fill="none" height="42" viewBox="0 0 42 42" width="42" xmlns="http://www.w3.org/2000/svg"><path d="m17.3103 21.1276c0-2.111 1.7119-3.8228 3.8242-3.8228s3.8252 1.7118 3.8252 3.8228c0 2.1111-1.7129 3.8229-3.8252 3.8229s-3.8242-1.7118-3.8242-3.8229zm-2.0678 0c0 3.2523 2.6378 5.8885 5.892 5.8885s5.8921-2.6362 5.8921-5.8885c0-3.2522-2.6379-5.8885-5.8921-5.8885s-5.892 2.6363-5.892 5.8885zm10.6404-6.122c-.0001.2722.0805.5383.2317.7647.1512.2263.3662.4028.6178.5071.2515.1042.5284.1316.7955.0786s.5125-.184.7052-.3763c.1926-.1924.3239-.4376.3771-.7045s.0261-.5436-.078-.7951c-.1042-.2515-.2806-.4665-.5069-.6178-.2264-.1513-.4926-.2321-.7649-.2322h-.0006c-.365.0001-.7151.1451-.9733.403-.2581.2579-.4033.6077-.4036.9725zm-9.3841 15.4564c-1.1187-.0509-1.7268-.2371-2.1309-.3944-.5357-.2085-.9179-.4567-1.3198-.8578s-.6507-.7828-.8583-1.3182c-.1575-.4036-.3439-1.0115-.3947-2.1296-.0557-1.2087-.0668-1.5719-.0668-4.6343s.0121-3.4245.0668-4.6343c.0509-1.118.2386-1.7247.3947-2.1296.2086-.5354.457-.9174.8583-1.319.4013-.4017.7832-.6503 1.3198-.8578.4039-.1574 1.0122-.3437 2.1309-.3945 1.2095-.0556 1.5728-.0667 4.6357-.0667s3.4266.012 4.6371.0667c1.1187.0509 1.7258.2385 2.1309.3945.5357.2075.9179.4567 1.3198.8578s.6498.7836.8583 1.319c.1575.4037.3439 1.0116.3947 2.1296.0557 1.2098.0668 1.5719.0668 4.6343s-.0111 3.4245-.0668 4.6343c-.0509 1.1181-.2382 1.7258-.3947 2.1296-.2085.5354-.4569.9174-.8583 1.3182-.4013.4007-.7841.6493-1.3198.8578-.4039.1574-1.0122.3436-2.1309.3944-1.2095.0556-1.5728.0667-4.6371.0667-3.0642 0-3.4266-.0111-4.6357-.0667zm-.095-20.73258c-1.2215.0556-2.0562.24917-2.7852.53268-.7549.2927-1.394.6855-2.0326 1.3227-.6387.6372-1.0306 1.2769-1.3236 2.0314-.28362.729-.47731 1.5627-.53294 2.7835-.05654 1.2228-.06949 1.6137-.06949 4.7279 0 3.1143.01295 3.5052.06949 4.7279.05563 1.2209.24932 2.0546.53294 2.7835.293.7541.685 1.3945 1.3236 2.0315.6385.6369 1.2777 1.0291 2.0326 1.3227.7303.2835 1.5637.4771 2.7852.5327 1.2241.0555 1.6146.0694 4.7307.0694s3.5073-.0129 4.7307-.0694c1.2217-.0556 2.0558-.2492 2.7852-.5327.7545-.2936 1.3941-.6855 2.0327-1.3227.6386-.6373 1.0298-1.2774 1.3235-2.0315.2837-.7289.4783-1.5627.533-2.7835.0556-1.2236.0685-1.6136.0685-4.7279 0-3.1142-.0129-3.5051-.0685-4.7279-.0557-1.2208-.2493-2.055-.533-2.7835-.2937-.754-.6859-1.3932-1.3235-2.0314s-1.2782-1.03-2.0317-1.3227c-.7304-.28351-1.5646-.478-2.7852-.53268-1.2235-.05559-1.6146-.06945-4.7308-.06945-3.1161 0-3.5075.01294-4.7316.06945z" fill="#fff"/></svg>