<svg width="268" height="32" viewBox="0 0 268 32" fill="none" xmlns="http://www.w3.org/2000/svg">
<path d="M12.7098 14.1775C16.0798 14.1775 18.0345 12.3473 18.0345 9.26761C18.0345 6.18791 16.0798 4.52363 12.7098 4.52363H6.21858V14.1775H12.7098ZM25.0675 30.8618H18.6592L11.9606 18.3797H6.21858V30.8618H0.476562V0.0725899H12.4169C19.6573 0.0725899 23.9839 3.35967 23.9839 8.85283C23.9839 14.8022 19.7402 18.2967 12.5413 18.2967V18.3797C15.9113 18.3797 18.9081 19.961 20.4453 22.7063L25.0649 30.8618H25.0675Z" fill="#006166"/>
<path d="M27.6406 9.97532H33.1338V30.8618H27.6406V9.97532ZM27.6406 0.7803H33.1338V5.98053H27.6406V0.7803Z" fill="#006166"/>
<path d="M57.0616 9.97531L51.61 30.8618H41.251L35.7578 9.97531H41.6243L46.4097 30.4885H46.4927L51.1952 9.97531H57.0616Z" fill="#006166"/>
<path d="M63.2496 19.1703H73.0694C72.7375 15.6759 70.9488 13.6772 68.201 13.6772C65.4531 13.6772 63.6229 15.6733 63.2496 19.1703ZM78.4355 21.042H63.2081C63.4155 24.8709 65.2457 27.1158 68.201 27.1158C70.7803 27.1158 72.569 25.7004 73.1108 23.4114H78.4355C77.6863 28.3627 73.8574 31.2765 68.201 31.2765C61.7098 31.2765 57.8809 27.2403 57.8809 20.4172C57.8809 13.5942 61.7098 9.55795 68.201 9.55795C74.6922 9.55795 78.4355 13.5527 78.4355 20.4172V21.042Z" fill="#006166"/>
<path d="M96.9545 10.2242L95.3732 15.1341C94.541 14.6752 93.5015 14.3849 92.462 14.3849C89.2579 14.3849 87.3447 17.0057 87.3447 21.4153V30.8592H81.8516V9.97271H87.3447V18.5845H87.4277C87.4277 12.8839 89.7997 9.55534 93.753 9.55534C94.961 9.55534 96.125 9.80421 96.9571 10.2216" fill="#006166"/>
<path d="M120.043 18.8954L114.801 0.505359H114.718L109.435 18.8954H120.045H120.043ZM121.292 23.3464H108.144L106.023 30.7942H100.281L109.852 0.00502396H120.004L129.531 30.7942H123.415L121.295 23.3464H121.292Z" fill="#006166"/>
<path d="M146.309 20.3498C146.309 16.4795 144.355 13.8171 141.026 13.8171C137.697 13.8171 135.74 16.2721 135.74 20.3498C135.74 24.4276 137.695 26.841 141.026 26.841C144.357 26.841 146.309 24.1787 146.309 20.3498ZM151.509 0.00259487V30.7918H146.016V23.5929H145.933C145.933 28.3783 143.146 31.2065 138.485 31.2065C133.244 31.2065 130.164 27.1703 130.164 20.3472C130.164 13.5242 133.244 9.48794 138.485 9.48794C143.146 9.48794 145.933 12.3162 145.933 17.0602H146.016V0H151.509V0.00259487Z" fill="#006166"/>
<path d="M175.319 9.90791L169.868 30.7944H159.509L154.016 9.90791H159.882L164.668 30.4185H164.75L169.453 9.90791H175.319Z" fill="#006166"/>
<path d="M178.293 9.90791H183.786V30.7944H178.293V9.90791ZM178.293 0.00518799H183.786V5.91313H178.293V0.00518799Z" fill="#006166"/>
<path d="M186.758 24.0129H191.875C191.875 26.3434 193.498 27.7173 196.243 27.7173C198.988 27.7173 200.445 26.7193 200.445 24.972C200.445 22.7659 197.99 22.3512 195.245 21.8923C191.626 21.309 187.297 20.6013 187.297 15.8185C187.297 11.8652 190.626 9.49318 196.243 9.49318C201.861 9.49318 205.148 12.0311 205.148 16.3577H200.031C200.031 14.1516 198.657 12.9047 196.243 12.9047C193.954 12.9047 192.583 13.8198 192.583 15.3596C192.583 17.2313 194.872 17.6072 197.534 18.0634C201.236 18.6882 205.731 19.4374 205.731 24.3473C205.731 28.6324 202.195 31.2118 196.246 31.2118C190.296 31.2118 186.76 28.5494 186.76 24.0129" fill="#006166"/>
<path d="M224.03 20.3499C224.03 16.2721 222.076 13.8172 218.747 13.8172C215.419 13.8172 213.464 16.2721 213.464 20.3499C213.464 24.4276 215.419 26.8411 218.747 26.8411C222.076 26.8411 224.03 24.4276 224.03 20.3499ZM207.844 20.3499C207.844 13.5268 211.922 9.49056 218.745 9.49056C225.568 9.49056 229.604 13.5268 229.604 20.3499C229.604 27.1729 225.568 31.2092 218.745 31.2092C211.922 31.2092 207.844 27.1729 207.844 20.3499Z" fill="#006166"/>
<path d="M247.503 10.1568L245.922 15.0667C245.09 14.6078 244.05 14.3175 243.011 14.3175C239.807 14.3175 237.894 16.9384 237.894 21.3479V30.7918H232.4V9.90534H237.894V18.5171H237.977C237.977 12.8165 240.349 9.48798 244.302 9.48798C245.51 9.48798 246.674 9.73684 247.506 10.1542" fill="#006166"/>
<path d="M248.025 24.0129H253.143C253.143 26.3434 254.765 27.7173 257.511 27.7173C260.256 27.7173 261.713 26.7193 261.713 24.972C261.713 22.7659 259.258 22.3512 256.513 21.8923C252.894 21.309 248.567 20.6013 248.567 15.8185C248.567 11.8652 251.896 9.49318 257.513 9.49318C263.131 9.49318 266.418 12.0311 266.418 16.3577H261.301C261.301 14.1516 259.927 12.9047 257.513 12.9047C255.224 12.9047 253.853 13.8198 253.853 15.3596C253.853 17.2313 256.142 17.6072 258.804 18.0634C262.509 18.6882 267.001 19.4374 267.001 24.3473C267.001 28.6324 263.465 31.2118 257.516 31.2118C251.567 31.2118 248.031 28.5494 248.031 24.0129" fill="#006166"/>
</svg>
