<svg fill="none" height="20" viewBox="0 0 165 20" width="165" xmlns="http://www.w3.org/2000/svg"><g fill="#3a3a3a"><path d="m7.54813 8.74767c2.07938 0 3.28547-1.12926 3.28547-3.02949s-1.20609-2.92713-3.28547-2.92713h-4.0052v5.95662zm7.62497 10.29453h-3.9541l-4.13312-7.7017h-3.54295v7.7017h-3.54293v-18.9975223h7.36739c4.46751 0 7.13711 2.0281923 7.13711 5.4175723 0 3.6709-2.6185 5.82705-7.06033 5.82705v.0512c2.07937 0 3.92843.9757 4.87693 2.6696l2.8504 5.0321z"/><path d="m16.7612 6.15495h3.3894v12.88735h-3.3894zm0-5.673505h3.3894v3.208635h-3.3894z"/><path d="m34.9143 6.15503-3.3638 12.88737h-6.3917l-3.3894-12.88737h3.6197l2.9527 12.65697h.0512l2.9016-12.65697z"/><path d="m38.7323 11.8285h6.0589c-.2047-2.15617-1.3084-3.3894-3.0039-3.3894-1.6954 0-2.8247 1.23163-3.055 3.3894zm9.37 1.1548h-9.3956c.1279 2.3625 1.2572 3.7477 3.0806 3.7477 1.5916 0 2.6952-.8733 3.0295-2.2857h3.2855c-.4623 3.0551-2.8248 4.8529-6.315 4.8529-4.0052 0-6.3677-2.4904-6.3677-6.7003 0-4.20999 2.3625-6.70044 6.3677-6.70044s6.315 2.46486 6.315 6.70044z"/><path d="m59.5293 6.30843-.9757 3.02949c-.5135-.28311-1.1549-.46226-1.7963-.46226-1.977 0-3.1574 1.61714-3.1574 4.33794v5.827h-3.3894v-12.88732h3.3894v5.31362h.0512c0-3.51736 1.4635-5.57115 3.9028-5.57115.7454 0 1.4635.15356 1.977.41108"/><path d="m73.7744 11.6589-3.2342-11.34701h-.0512l-3.2598 11.34701h6.5468zm.771 2.7464h-8.1128l-1.3084 4.5954h-3.5429l5.9054-18.99752617h6.2637l5.8783 18.99752617h-3.7733l-1.3084-4.5954z"/><path d="m89.981 12.5562c0-2.388-1.206-4.03076-3.2598-4.03076s-3.2614 1.51476-3.2614 4.03076c0 2.5161 1.206 4.0052 3.2614 4.0052s3.2598-1.6427 3.2598-4.0052zm3.2087-12.55459892v18.99749892h-3.3894v-4.4419h-.0512c0 2.9528-1.7195 4.6978-4.5954 4.6978-3.2342 0-5.1345-2.4904-5.1345-6.7004 0-4.2099 1.9003-6.70036 5.1345-6.70036 2.8759 0 4.5954 1.74508 4.5954 4.67216h.0512v-10.5264h3.3894z"/><path d="m107.881 6.11328-3.364 12.88732h-6.3912l-3.3894-12.88732h3.6197l2.9529 12.65542h.051l2.902-12.65542z"/><path d="m109.716 6.11335h3.389v12.88735h-3.389zm0-6.11017617h3.389v3.64531617h-3.389z"/><path d="m114.94 14.8163h3.157c0 1.438 1.002 2.2858 2.696 2.2858s2.592-.6159 2.592-1.6939c0-1.3612-1.514-1.6172-3.208-1.9003-2.233-.3599-4.904-.7965-4.904-3.74765 0-2.43927 2.053-3.90283 5.52-3.90283 3.466 0 5.494 1.56593 5.494 4.23558h-3.157c0-1.36124-.848-2.13061-2.337-2.13061-1.413 0-2.259.56463-2.259 1.51475 0 1.15486 1.412 1.38676 3.055 1.66826 2.284.3855 5.058.8478 5.058 3.8773 0 2.644-2.182 4.2355-5.853 4.2355s-5.852-1.6427-5.852-4.4419"/><path d="m137.936 12.5564c0-2.5161-1.206-4.03084-3.26-4.03084-2.053 0-3.26 1.51474-3.26 4.03084 0 2.516 1.207 4.0051 3.26 4.0051 2.054 0 3.26-1.4891 3.26-4.0051zm-9.987 0c0-4.20999 2.516-6.70044 6.726-6.70044s6.7 2.49045 6.7 6.70044c0 4.2099-2.49 6.7003-6.7 6.7003s-6.726-2.4904-6.726-6.7003z"/><path d="m152.42 6.26693-.976 3.02949c-.513-.28312-1.155-.46226-1.796-.46226-1.977 0-3.157 1.61714-3.157 4.33794v5.827h-3.39v-12.88733h3.39v5.31363h.051c0-3.51736 1.463-5.57115 3.903-5.57115.745 0 1.463.15355 1.977.41108"/><path d="m152.743 14.8163h3.157c0 1.438 1.002 2.2858 2.696 2.2858 1.693 0 2.592-.6159 2.592-1.6939 0-1.3612-1.514-1.6172-3.208-1.9003-2.233-.3599-4.903-.7965-4.903-3.74765 0-2.43927 2.054-3.90283 5.52-3.90283s5.495 1.56593 5.495 4.23558h-3.158c0-1.36124-.848-2.13061-2.337-2.13061-1.412 0-2.258.56463-2.258 1.51475 0 1.15486 1.412 1.38676 3.055 1.66826 2.285.3855 5.057.8478 5.057 3.8773 0 2.644-2.181 4.2355-5.852 4.2355s-5.853-1.6427-5.853-4.4419"/></g></svg>