<svg fill="none" height="152" viewBox="0 0 1300 152" width="1300" xmlns="http://www.w3.org/2000/svg"><g fill="#fff"><path d="m59.9714 68.7227c16.5211 0 26.1034-8.9171 26.1034-23.9222s-9.5823-23.1139-26.1034-23.1139h-31.8221v47.0361zm60.5816 81.2903h-31.4155l-32.8388-60.8162h-28.1494v60.8162h-28.1493v-150.013h58.5354c35.4949 0 56.7056 16.0155 56.7056 42.7796 0 28.9871-20.804 46.013-56.0956 46.013v.4042c16.5211 0 31.2121 7.7047 38.7483 21.0802l22.6463 39.736z"/><path d="m132.509 48.6139h26.9v101.3991h-26.9zm0-44.63978h26.9v25.24598h-26.9z"/><path d="m275.977 48.6796-26.516 101.3334h-50.383l-26.717-101.3334h28.533l23.275 99.5224h.403l22.872-99.5224z"/><path d="m306.245 93.3006h48.073c-1.624-16.9437-10.381-26.6347-23.833-26.6347-13.453 0-22.413 9.6785-24.24 26.6347zm74.344 9.0754h-74.547c1.015 18.565 9.975 29.45 24.443 29.45 12.627 0 21.384-6.863 24.036-17.962h26.068c-3.668 24.008-22.412 38.136-50.104 38.136-31.778 0-50.523-19.571-50.523-52.6535 0-33.0829 18.745-52.6535 50.523-52.6535s50.104 19.3695 50.104 52.6535z"/><path d="m471.24 49.9367-7.718 23.8122c-4.062-2.2254-9.135-3.6335-14.209-3.6335-15.639 0-24.976 12.7107-24.976 34.0966v45.801h-26.811v-101.2958h26.811v41.7655h.405c0-27.6467 11.577-43.7897 30.872-43.7897 5.896 0 11.577 1.207 15.638 3.2311"/><path d="m583.41 91.8738-25.559-89.41557h-.405l-25.761 89.41557h51.738zm6.093 21.6422h-64.113l-10.34 36.212h-27.998l46.668-149.7024873h49.5l46.454 149.7024873h-29.819l-10.34-36.212z"/><path d="m711.486 98.9445c0-18.8184-9.531-31.7631-25.761-31.7631-16.231 0-25.774 11.9364-25.774 31.7631 0 19.8265 9.531 31.5615 25.774 31.5615s25.761-12.945 25.761-31.5615zm25.357-98.9318833v149.7023833h-26.786v-35.002h-.404c0 23.267-13.589 37.019-36.316 37.019-25.559 0-40.576-19.625-40.576-52.8001 0-33.1748 15.017-52.7999 40.576-52.7999 22.727 0 36.316 13.7515 36.316 36.8175h.404v-82.9495h26.786z"/><path d="m852.945 48.1727-26.583 101.5533h-50.511l-26.786-101.5533h28.606l23.334 99.7263h.405l22.929-99.7263z"/><path d="m867.444 48.1742h26.785v101.5538h-26.785zm0-48.1488094h26.785v28.7255094h-26.785z"/><path d="m908.728 116.754h24.952c0 11.331 7.913 18.012 21.299 18.012s20.49-4.853 20.49-13.348c0-10.727-11.97-12.743-25.357-14.974-17.646-2.836-38.755-6.277-38.755-29.5326 0-19.2217 16.23-30.7547 43.622-30.7547s43.42 12.3397 43.42 33.3765h-24.952c0-10.7264-6.7-16.7891-18.468-16.7891-11.162 0-17.848 4.4494-17.848 11.9364 0 9.1004 11.161 10.928 24.143 13.1464 18.051 3.0376 39.966 6.6803 39.966 30.5531 0 20.835-17.239 33.376-46.248 33.376-29.01 0-46.252-12.944-46.252-35.002"/><path d="m1090.46 98.9458c0-19.8267-9.53-31.7631-25.76-31.7631s-25.76 11.9364-25.76 31.7631c0 19.8272 9.53 31.5612 25.76 31.5612s25.76-11.734 25.76-31.5612zm-78.93 0c0-33.1747 19.89-52.7998 53.16-52.7998s52.95 19.6251 52.95 52.7998c0 33.1752-19.68 52.8002-52.95 52.8002s-53.16-19.625-53.16-52.8002z"/><path d="m1204.92 49.3827-7.71 23.8727c-4.06-2.231-9.13-3.6427-14.2-3.6427-15.62 0-24.95 12.7431-24.95 34.1833v45.918h-26.78v-101.554h26.78v41.8719h.41c0-27.7171 11.56-43.9012 30.84-43.9012 5.89 0 11.56 1.2101 15.62 3.2394"/><path d="m1207.47 116.754h24.95c0 11.331 7.92 18.012 21.3 18.012 13.39 0 20.49-4.853 20.49-13.348 0-10.727-11.97-12.743-25.35-14.974-17.65-2.836-38.75-6.277-38.75-29.5326 0-19.2217 16.23-30.7547 43.63-30.7547 27.39 0 43.42 12.3397 43.42 33.3765h-24.96c0-10.7264-6.7-16.7891-18.46-16.7891-11.17 0-17.85 4.4494-17.85 11.9364 0 9.1004 11.16 10.928 24.14 13.1464 18.06 3.0376 39.97 6.6803 39.97 30.5531 0 20.835-17.24 33.376-46.25 33.376s-46.25-12.944-46.25-35.002"/></g></svg>