<svg fill="none" height="42" viewBox="0 0 42 42" width="42" xmlns="http://www.w3.org/2000/svg"><path clip-rule="evenodd" d="m32.6091 21.1346c0 6.3372-5.1374 11.4745-11.4746 11.4745s-11.47453-5.1373-11.47453-11.4745 5.13733-11.47457 11.47453-11.47457 11.4746 5.13737 11.4746 11.47457zm-10.375-3.5209c-1.9713.8514-7.6552 3.2696-7.6552 3.2696-1.347.5449-.5586 1.0558-.5586 1.0558s1.15.4087 2.1357.7152c.9856.3065 1.5113-.034 1.5113-.034s2.2998-1.5667 4.6325-3.2356c1.6427-1.158 1.2485-.2044.8542.2044-.8542.8855-2.2669 2.2819-3.4497 3.4058-.5257.4768-.2629.8855-.0329 1.0898.6689.5868 2.2443 1.6538 2.9595 2.1382.1982.1343.3304.2238.3589.2459.1642.1363 1.0842.7493 1.6427.6131s.6243-.9196.6243-.9196.4271-2.7928.8213-5.3472c.0731-.5015.1461-.9925.2142-1.4503.177-1.1901.3206-2.1561.3444-2.5004.0986-1.158-1.0842-.6812-1.0842-.6812s-2.5627 1.0899-3.3184 1.4305z" fill="#fff" fill-rule="evenodd"/></svg>