<svg fill="none" height="42" viewBox="0 0 42 42" width="42" xmlns="http://www.w3.org/2000/svg"><g fill="#fff"><path d="m10.5 31.5 1.5067-5.5973c-1.2151-2.1804-1.6012-4.7248-1.0873-7.1662.5138-2.4415 1.8931-4.6162 3.8847-6.1251 1.9917-1.509 4.462-2.2509 6.9578-2.0897s4.8496 1.2147 6.6295 2.9672c1.7799 1.7526 2.8665 4.0866 3.0604 6.5737.1939 2.4872-.518 4.9606-2.0048 6.9665-1.4869 2.006-3.6492 3.4098-6.09 3.9539-2.4408.544-4.9964.1919-7.198-.9918zm5.9319-3.6033.35.2071c1.5946.9427 3.4571 1.3328 5.2972 1.1095 1.8401-.2232 3.5545-1.0474 4.876-2.3441 1.3215-1.2966 2.1758-2.9928 2.4299-4.8243.2541-1.8316-.1064-3.6955-1.0252-5.3013-.9188-1.6059-2.3444-2.8634-4.0546-3.5767-1.7102-.7134-3.6089-.8424-5.4003-.3669-1.7913.4754-3.3747 1.5285-4.5033 2.9953-1.1287 1.4667-1.7392 3.2646-1.7365 5.1136-.0015 1.5331.4236 3.0365 1.2279 4.3429l.2195.361-.8423 3.124z"/><path clip-rule="evenodd" d="m24.9262 22.3462c-.2052-.1651-.4454-.2813-.7024-.3397-.257-.0585-.5239-.0576-.7806.0024-.3855.1598-.6347.7633-.8838 1.065-.0526.0724-.1298.1231-.2171.1427-.0874.0196-.1789.0067-.2575-.0362-1.4116-.5514-2.5948-1.5627-3.3574-2.8696-.0651-.0816-.0959-.1851-.0859-.2889.01-.1037.0599-.1995.1393-.2673.2778-.2744.4819-.6142.5932-.9881.0247-.4124-.0701-.8232-.2729-1.1834-.1568-.5049-.4553-.9546-.8601-1.2958-.2088-.0936-.4404-.125-.6667-.0904-.2263.0347-.4377.1339-.6087.2857-.2969.2555-.5326.5742-.6896.9326-.1571.3584-.2316.7474-.218 1.1383.0009.2195.0288.4381.0831.6508.1377.5112.3495.9995.6287 1.4496.2015.3448.4213.6786.6585 1 .7709 1.0555 1.7399 1.9518 2.8532 2.6389.5587.3492 1.1558.6331 1.7796.8461.648.293 1.3634.4054 2.0702.3254.4028-.0608.7844-.2194 1.1113-.4619.3268-.2424.5889-.5613.7632-.9285.1024-.2219.1335-.4699.089-.7101-.1068-.491-.7652-.781-1.1686-1.0176z" fill-rule="evenodd"/></g></svg>